<svg width="25.000000" height="25.000000" viewBox="0 0 25 25" fill="none" xmlns="http://www.w3.org/2000/svg" xmlns:xlink="http://www.w3.org/1999/xlink">
	<desc>
			Created with Pixso.
	</desc>
	<defs>
		<clipPath id="clip1_737">
			<rect id="git-pull-request" width="25.000000" height="25.000000" fill="white" fill-opacity="0"/>
		</clipPath>
	</defs>
	<rect id="git-pull-request" width="25.000000" height="25.000000" fill="#FFFFFF" fill-opacity="0"/>
	<g clip-path="url(#clip1_737)">
		<path id="Vector" d="M18.75 21.875C17.0242 21.875 15.625 20.4756 15.625 18.75C15.625 17.0244 17.0242 15.625 18.75 15.625C20.4758 15.625 21.875 17.0244 21.875 18.75C21.875 20.4756 20.4758 21.875 18.75 21.875Z" stroke="#FF862F" stroke-opacity="1.000000" stroke-width="2.000000" stroke-linejoin="round"/>
		<path id="Vector" d="M6.25 9.375C4.52417 9.375 3.125 7.97559 3.125 6.25C3.125 4.52441 4.52417 3.125 6.25 3.125C7.97583 3.125 9.375 4.52441 9.375 6.25C9.375 7.97559 7.97583 9.375 6.25 9.375Z" stroke="#FF862F" stroke-opacity="1.000000" stroke-width="2.000000" stroke-linejoin="round"/>
		<path id="Vector" d="M13.5417 6.25L16.6667 6.25C17.2192 6.25 17.7493 6.46973 18.1399 6.86035C18.5305 7.25098 18.75 7.78125 18.75 8.33301L18.75 15.625" stroke="#FF862F" stroke-opacity="1.000000" stroke-width="2.000000" stroke-linejoin="round" stroke-linecap="round"/>
		<path id="Vector" d="M6.25 9.375L6.25 21.875" stroke="#FF862F" stroke-opacity="1.000000" stroke-width="2.000000" stroke-linejoin="round" stroke-linecap="round"/>
	</g>
</svg>
