<svg width="25.000000" height="25.000000" viewBox="0 0 25 25" fill="none" xmlns="http://www.w3.org/2000/svg" xmlns:xlink="http://www.w3.org/1999/xlink">
	<desc>
			Created with Pixso.
	</desc>
	<defs>
		<clipPath id="clip1_732">
			<rect id="briefcase" width="25.000000" height="25.000000" fill="white" fill-opacity="0"/>
		</clipPath>
	</defs>
	<rect id="briefcase" width="25.000000" height="25.000000" fill="#FFFFFF" fill-opacity="0"/>
	<g clip-path="url(#clip1_732)">
		<path id="Vector" d="M20.8333 7.29199C21.9839 7.29199 22.9165 8.22461 22.9165 9.375L22.9165 19.792C22.9165 20.9424 21.9839 21.875 20.8333 21.875L4.1665 21.875C3.01611 21.875 2.08325 20.9424 2.08325 19.792L2.08325 9.375C2.08325 8.22461 3.01611 7.29199 4.1665 7.29199L20.8333 7.29199Z" stroke="#FF862F" stroke-opacity="1.000000" stroke-width="2.000000" stroke-linejoin="round"/>
		<path id="Vector" d="M16.6665 21.875L16.6665 5.20801C16.6665 4.65625 16.447 4.12598 16.0564 3.73535C15.6658 3.34473 15.1357 3.125 14.5833 3.125L10.4165 3.125C9.86401 3.125 9.33423 3.34473 8.94336 3.73535C8.55273 4.12598 8.33325 4.65625 8.33325 5.20801L8.33325 21.875" stroke="#FF862F" stroke-opacity="1.000000" stroke-width="2.000000" stroke-linejoin="round" stroke-linecap="round"/>
	</g>
</svg>
